# xmcd
#
# Track frame offsets: 
#        150
#        18668
#        41503
#        57428
#        76495
#        96926
#        114829
#        132214
#        156400
#        174688
#
# Disc length: 2567 seconds
#
# Revision: 0
# Processed by: cddbd v1.5.1PL0 Copyright (c) Steve Scherf et al.
# Submitted via: ExactAudioCopy v0.95a5
#
DISCID=810a050a
DTITLE=Ingrid Kup - Feel me
DYEAR=1982
DGENRE=Pop
TTITLE0=Love what's your face
TTITLE1=What's there about her
TTITLE2=Hey butterfly
TTITLE3=Song of hope
TTITLE4=I'd like to be your woman
TTITLE5=Feel mee
TTITLE6=I will not die
TTITLE7=Do you remember
TTITLE8=Tears in your eyes
TTITLE9=Life goes on
EXTD=
EXTT0=
EXTT1=
EXTT2=
EXTT3=
EXTT4=
EXTT5=
EXTT6=
EXTT7=
EXTT8=
EXTT9=
PLAYORDER=
